<svg width="188" height="36" viewBox="0 0 188 36" fill="none" xmlns="http://www.w3.org/2000/svg">
<path d="M41.334 4.73129H47.5214C55.0086 4.73129 58.6093 6.68109 58.6093 16.3651V19.3938C58.6093 28.8958 55.0086 30.8456 47.5214 30.8456H41.334V4.73129ZM47.7814 26.972C52.0319 26.972 52.5389 25.8931 52.5389 18.5879V16.898C52.5389 9.69678 52.0319 8.5529 47.7814 8.5529H47.0664V26.985H47.7814V26.972Z" fill="#08371D"/>
<path d="M59.6894 19.6019V15.8973C59.6894 8.00706 61.7822 4.23744 68.8015 4.23744C75.8208 4.23744 77.9136 8.02005 77.9136 15.8973V19.6019C77.9136 27.5181 75.7948 31.2617 68.8015 31.2617C61.8082 31.2617 59.6894 27.5181 59.6894 19.6019ZM65.7728 16.8982V18.588C65.7728 24.0604 65.8118 27.2971 68.8015 27.2971C71.7912 27.2971 71.8302 24.0604 71.8302 18.588V16.8982C71.8302 11.4257 71.7912 8.18904 68.8015 8.18904C65.8118 8.18904 65.7728 11.4257 65.7728 16.8982Z" fill="#08371D"/>
<path d="M78.9785 19.6019V15.8973C78.9785 8.00705 81.0713 4.23744 88.0906 4.23744C95.1099 4.23744 97.2027 8.02005 97.2027 15.8973V19.6019C97.2027 27.5181 95.0839 31.2617 88.0906 31.2617C81.0973 31.2617 78.9785 27.5181 78.9785 19.6019ZM85.0619 16.8981V18.588C85.0619 24.0604 85.1009 27.2971 88.0906 27.2971C91.0803 27.2971 91.1193 24.0604 91.1193 18.588V16.8981C91.1193 11.4257 91.0803 8.18904 88.0906 8.18904C85.1009 8.18904 85.0619 11.4257 85.0619 16.8981Z" fill="#08371D"/>
<path d="M106.965 19.5629C106.822 19.6019 106.679 19.6019 106.536 19.6019H104.56V30.8327H98.8407V4.7314H106.263C113.061 4.7314 116.051 6.23924 116.051 11.8937C116.051 15.4943 114.608 17.2881 112.125 18.302L116.415 30.8327H110.514L106.991 19.5629H106.965ZM106.211 16.1052C109.409 16.1052 110.059 15.3903 110.059 12.3616C110.059 9.33293 109.409 8.54001 106.211 8.54001H104.56V16.1052H106.211Z" fill="#08371D"/>
<path d="M117.677 4.73129H125.099C130.714 4.73129 134.497 5.88817 134.497 12.5045C134.497 19.1208 130.714 20.4987 125.099 20.4987H123.409V30.8326H117.69V4.73129H117.677ZM124.371 16.6381C127.569 16.6381 128.401 16.0661 128.401 12.6085C128.401 9.15084 127.569 8.5399 124.371 8.5399H123.396V16.6381H124.371Z" fill="#08371D"/>
<path d="M138.966 4.73129H145.882L152.147 30.8326H146.311L145.232 25.3602H139.33L138.29 30.8326H132.753L138.979 4.73129H138.966ZM144.504 21.7206L142.268 10.2687L140.032 21.7206H144.504Z" fill="#08371D"/>
<path d="M151.888 22.5137V22.2667H157.543V22.5137C157.543 25.9713 158.258 27.4142 160.675 27.4142C162.586 27.4142 163.522 26.5173 163.522 24.0605C163.522 22.0457 162.365 21.0058 160.493 20.1349L158.258 19.121C154.189 17.2882 152.135 15.5204 152.135 11.0878C152.135 6.36933 155.307 4.21155 160.051 4.21155C165.238 4.21155 168.579 6.22634 168.579 12.0627V12.2057H163.002V12.0627C163.002 9.00806 162.027 7.99416 160.012 7.99416C158.388 7.99416 157.634 9.03406 157.634 10.9059C157.634 12.5307 158.18 13.4666 159.609 14.0775L162.131 15.2344C166.057 16.9632 169.112 18.5491 169.112 23.3326C169.112 28.7011 166.018 31.2488 160.649 31.2488C154.462 31.2488 151.862 28.0771 151.862 22.5007L151.888 22.5137Z" fill="#08371D"/>
<path d="M169.838 22.5135V22.2665H175.493V22.5135C175.493 25.9711 176.208 27.414 178.626 27.414C180.536 27.414 181.472 26.517 181.472 24.0603C181.472 22.0455 180.315 21.0056 178.444 20.1347L176.208 19.1208C172.139 17.288 170.085 15.5202 170.085 11.0876C170.085 6.3691 173.257 4.21132 178.002 4.21132C183.188 4.21132 186.529 6.22611 186.529 12.0625V12.2055H180.952V12.0625C180.952 9.00783 179.977 7.99393 177.963 7.99393C176.338 7.99393 175.584 9.03383 175.584 10.9056C175.584 12.5305 176.13 13.4664 177.56 14.0773L180.081 15.2342C184.007 16.963 187.062 18.5489 187.062 23.3324C187.062 28.7008 183.968 31.2486 178.6 31.2486C172.412 31.2486 169.812 28.0769 169.812 22.5005L169.838 22.5135Z" fill="#08371D"/>
<path d="M0 33.669L12.9002 29.4441V6.15945L0 1.93451V33.669Z" fill="#08371D"/>
<path d="M16.3768 35.6034L30.8554 30.8563V4.74712L16.3768 0V35.6034Z" fill="#08371D"/>
</svg>
